<svg version="1.1" xmlns="http://www.w3.org/2000/svg" xmlns:xlink="http://www.w3.org/1999/xlink" width="336" height="304" viewBox="0,0,256,231.60938"><defs><clipPath id="clip-1"><rect x="0" y="0" width="336" height="304" id="clip0_2_1323" fill="none" stroke="none" stroke-width="1"></rect></clipPath></defs><g fill="none" fill-rule="nonzero" stroke="none" stroke-width="none" stroke-linecap="butt" stroke-linejoin="miter" stroke-miterlimit="10" stroke-dasharray="" stroke-dashoffset="0" font-family="none" font-weight="none" font-size="none" text-anchor="none" style="mix-blend-mode: normal"><g transform="translate(0,-0.00484) scale(0.7619,0.7619)"><g clip-path="url(#clip-1)"><path d="M0.67565,249.836c2.93315,-1.436 4.17835,-5.247 7.36054,-6.241c3.26521,-1.021 6.89011,0.994 9.87861,-1.215c1.3005,-0.966 2.269,-2.568 3.8463,-3.148c1.3836,-0.497 2.8225,0.055 4.1507,0.47c1.1345,0.359 2.269,0.69 3.4035,1.049c4.5658,1.408 9.1039,2.789 13.6696,4.197c5.1745,1.574 10.3214,3.176 15.4959,4.75c0.4981,0.166 0.7194,-0.635 0.2213,-0.801c-9.4635,-2.899 -18.8994,-5.799 -28.3629,-8.698c-2.2137,-0.663 -4.5104,-1.685 -6.8071,-1.961c-1.605,-0.193 -2.8778,0.442 -4.0124,1.491c-1.5772,1.464 -2.7671,2.817 -5.0638,2.927c-1.9093,0.111 -3.791,-0.386 -5.70027,-0.082c-3.92931,0.607 -5.14684,4.887 -8.46738,6.517c-0.49808,0.276 -0.08301,0.994 0.3874,0.745z" fill="#e8e8e8" stroke="none" stroke-width="1"></path><path d="M50.4007,246.357c1.9647,0.497 3.5143,-1.464 5.2852,-2.044c2.3797,-0.801 4.9255,-0.469 7.0838,0.773c0.4705,0.276 0.8855,-0.442 0.4151,-0.718c-1.8263,-1.077 -3.9016,-1.518 -6.0046,-1.242c-0.9132,0.11 -1.771,0.359 -2.6011,0.718c-1.1899,0.524 -2.5734,2.043 -3.957,1.712c-0.5258,-0.138 -0.7471,0.663 -0.2214,0.801z" fill="#e8e8e8" stroke="none" stroke-width="1"></path><path d="M71.7353,244.286c-1.854,-1.519 -3.625,-3.148 -5.2852,-4.888c-0.7748,-0.801 -1.5219,-1.657 -2.2414,-2.513c-0.4151,-0.497 -0.8301,-0.994 -1.2175,-1.491c-0.2767,-0.359 -0.5535,-0.718 -0.8025,-1.077c-0.4427,-0.442 -0.4427,-0.994 0.0277,-1.602c0.332,0.138 0.8578,-0.193 0.5811,-0.58c-1.688,-2.264 -2.9332,-4.749 -3.7356,-7.456c-0.1661,0.166 -0.3321,0.332 -0.4981,0.497c0.9131,0.249 1.5772,0.718 2.0753,1.492c0.2767,0.441 0.9962,0.055 0.7195,-0.415c-4.123,-7.124 -7.4989,-14.635 -10.0447,-22.45c-0.2213,0.138 -0.4704,0.276 -0.6918,0.414c11.5943,11.377 16.8518,27.2 26.6197,39.931c0.3321,0.414 1.0515,0 0.7195,-0.415c-9.7956,-12.785 -15.1085,-28.663 -26.7581,-40.096c-0.2767,-0.276 -0.8301,0 -0.6917,0.414c2.5734,7.898 5.9493,15.465 10.1276,22.644c0.2491,-0.138 0.4704,-0.276 0.7195,-0.414c-0.6365,-0.966 -1.4666,-1.602 -2.5734,-1.878c-0.3044,-0.083 -0.6088,0.194 -0.4981,0.497c0.8301,2.762 2.103,5.33 3.8186,7.65c0.1937,-0.194 0.3874,-0.387 0.5811,-0.58c-0.7748,-0.359 -1.6326,0 -1.8263,0.911c-0.249,1.298 1.3282,2.734 2.0477,3.645c2.4627,3.065 5.2575,5.854 8.3013,8.339c0.3597,0.332 0.9408,-0.248 0.5258,-0.579z" fill="#e8e8e8" stroke="none" stroke-width="1"></path><path d="M68.8297,227.027c-5.0915,-7.594 -9.2145,-15.741 -12.2583,-24.356c-0.083,0.165 -0.1937,0.331 -0.2767,0.497c0.9408,-0.221 1.7433,0.138 2.269,0.966c0.2767,0.47 0.9408,0.056 0.7195,-0.414c-4.2891,-9.251 -8.6611,-18.888 -8.3567,-29.299c-0.2491,0.083 -0.5258,0.138 -0.7748,0.221c7.3882,15.188 14.4167,30.569 21.0578,46.089c0.1937,0.441 0.9131,0.11 0.7471,-0.332c-1.1069,-3.314 -2.186,-6.655 -3.2929,-9.969c-0.5257,-1.629 -1.0792,-3.23 -1.6049,-4.86c-0.3597,-1.077 -1.1345,-3.424 0.4151,-4.004c-0.1661,-0.055 -0.3044,-0.138 -0.4705,-0.193c1.9924,3.893 3.957,7.787 5.9493,11.681c0.2491,0.469 0.9686,0.055 0.7195,-0.414c-2.1583,-4.225 -3.1545,-8.892 -2.9608,-13.642c-0.2767,0.028 -0.5534,0.083 -0.8025,0.11c5.7556,14.277 12.4244,28.195 19.9233,41.643c0.249,0.469 0.9685,0.055 0.7194,-0.414c-7.4712,-13.393 -14.1123,-27.228 -19.8402,-41.449c-0.166,-0.415 -0.8025,-0.387 -0.8025,0.11c-0.1937,4.888 0.8578,9.665 3.0715,14.056c0.2491,-0.138 0.4704,-0.276 0.7195,-0.414c-1.9924,-3.894 -3.957,-7.788 -5.9493,-11.681c-0.083,-0.138 -0.3044,-0.249 -0.4704,-0.194c-2.7672,1.022 -0.9962,4.971 -0.3874,6.821c1.4389,4.336 2.8501,8.699 4.289,13.034c0.249,-0.11 0.4981,-0.221 0.7471,-0.331c-6.6411,-15.52 -13.6696,-30.901 -21.0578,-46.089c-0.1937,-0.386 -0.7748,-0.165 -0.7748,0.221c-0.332,10.549 4.123,20.352 8.4674,29.713c0.2491,-0.138 0.4704,-0.276 0.7195,-0.414c-0.7195,-1.132 -1.8817,-1.629 -3.2099,-1.353c-0.2214,0.055 -0.3597,0.304 -0.2767,0.497c3.0715,8.671 7.2222,16.9 12.3414,24.549c0.2767,0.47 0.9961,0.055 0.6917,-0.386z" fill="#e8e8e8" stroke="none" stroke-width="1"></path><path d="M14.1515,280.405c9.5742,-4.611 19.6742,-9.306 30.6043,-8.201c5.1745,0.524 10.183,2.016 15.3298,2.678c2.6011,0.332 5.2299,0.47 7.831,0.166c2.4351,-0.304 4.7318,-1.187 7.1115,-1.712c3.0715,-0.69 5.8663,0.028 8.8271,0.856c2.4351,0.663 4.8425,1.215 7.3605,0.635c0.5258,-0.11 0.3044,-0.911 -0.2213,-0.801c-5.0362,1.188 -9.768,-2.43 -14.8595,-1.712c-2.518,0.359 -4.8701,1.353 -7.3605,1.795c-2.6288,0.442 -5.3129,0.387 -7.9693,0.055c-5.2299,-0.607 -10.3214,-2.154 -15.5789,-2.733c-5.1745,-0.58 -10.2937,0.082 -15.2468,1.518c-5.6449,1.657 -10.9855,4.198 -16.243,6.738c-0.4981,0.221 -0.0553,0.939 0.4151,0.718z" fill="#e8e8e8" stroke="none" stroke-width="1"></path><path d="M70.3241,303.297c3.2375,-1.38 6.4197,-2.899 9.4912,-4.611c1.6049,-0.911 3.1822,-1.85 4.7594,-2.844c1.4113,-0.912 2.8225,-2.21 4.3721,-2.872c1.7433,-0.718 4.372,0.635 6.1153,1.16c1.854,0.579 3.708,1.132 5.5339,1.712c3.791,1.159 7.582,2.319 11.346,3.479c0.498,0.166 0.719,-0.635 0.221,-0.801c-4.04,-1.242 -8.108,-2.485 -12.148,-3.728c-1.9367,-0.607 -3.8737,-1.187 -5.8107,-1.795c-1.4942,-0.469 -3.3759,-1.436 -4.9531,-1.049c-1.4666,0.359 -2.7948,1.629 -4.04,2.458c-1.605,1.049 -3.2652,2.071 -4.9255,3.037c-3.3482,1.906 -6.8071,3.618 -10.3767,5.109c-0.4981,0.221 -0.0553,0.939 0.4151,0.745z" fill="#e8e8e8" stroke="none" stroke-width="1"></path><path d="M104.747,304.154c2.103,-1.05 4.206,-2.127 6.309,-3.176c1.937,-0.994 4.012,-2.32 6.226,-2.513c2.241,-0.221 3.985,1.243 5.922,2.099c1.632,0.718 3.403,1.132 5.174,1.242c4.151,0.221 8.025,-1.85 12.148,-1.629c3.293,0.193 6.613,2.9 9.851,1.188c0.47,-0.249 0.055,-0.967 -0.415,-0.718c-2.02,1.077 -4.206,0.027 -6.199,-0.608c-1.715,-0.552 -3.376,-0.801 -5.174,-0.607c-4.262,0.441 -8.163,2.236 -12.535,1.215c-3.625,-0.829 -6.392,-3.839 -10.294,-2.707c-1.799,0.525 -3.486,1.519 -5.147,2.348c-2.103,1.049 -4.206,2.126 -6.309,3.175c-0.442,0.221 -0.027,0.939 0.443,0.691z" fill="#e8e8e8" stroke="none" stroke-width="1"></path><path d="M120.907,298.161c-1.716,-1.491 -3.265,-3.148 -4.538,-5.053c-0.581,-0.856 -1.107,-1.768 -1.605,-2.679c-0.249,-0.469 -0.47,-0.939 -0.664,-1.408c-0.166,-0.387 -0.332,-0.746 -0.471,-1.132c-0.249,-0.415 -0.138,-0.801 0.333,-1.16c0.249,-0.111 0.498,-0.221 0.747,-0.332c-3.044,-4.473 -4.953,-9.554 -5.59,-14.911c-0.249,0.11 -0.47,0.193 -0.719,0.304c0.498,0.635 0.996,1.27 1.522,1.933c0.304,0.386 0.885,-0.111 0.664,-0.498c-4.815,-8.588 -7.389,-18.253 -7.444,-28.083c-0.249,0.11 -0.47,0.193 -0.719,0.303c1.881,1.519 3.32,3.397 4.206,5.634c0.249,-0.111 0.498,-0.221 0.747,-0.332c-2.159,-4.556 -2.601,-9.692 -1.328,-14.552c-0.277,0 -0.526,0 -0.803,0c5.673,16.209 11.318,32.391 16.99,48.601c0.166,0.497 0.969,0.276 0.803,-0.221c-2.85,-8.312 -4.262,-17.038 -4.179,-25.847c-0.249,0.11 -0.47,0.193 -0.719,0.304c1.688,1.518 2.739,3.424 3.127,5.661c0.083,0.469 0.83,0.359 0.802,-0.111c-0.083,-1.684 -0.193,-3.396 -0.276,-5.081c-0.222,0.111 -0.416,0.249 -0.637,0.359c1.467,0.939 1.743,3.424 2.214,4.971c0.498,1.657 0.996,3.313 1.522,4.998c1.024,3.424 2.075,6.821 3.099,10.245c2.075,6.821 4.151,13.669 6.226,20.49c0.166,0.497 0.968,0.303 0.802,-0.221c-2.241,-7.346 -4.455,-14.719 -6.696,-22.064c-1.079,-3.59 -2.186,-7.18 -3.265,-10.77c-0.554,-1.85 -1.107,-3.672 -1.661,-5.523c-0.359,-1.132 -0.774,-2.154 -1.798,-2.816c-0.249,-0.166 -0.637,0.055 -0.637,0.359c0.083,1.684 0.194,3.396 0.277,5.081c0.277,-0.028 0.554,-0.083 0.803,-0.111c-0.388,-2.375 -1.55,-4.446 -3.349,-6.047c-0.276,-0.249 -0.691,-0.083 -0.719,0.303c-0.083,8.865 1.328,17.674 4.206,26.068c0.277,-0.082 0.526,-0.138 0.802,-0.22c-5.672,-16.21 -11.317,-32.392 -16.99,-48.602c-0.138,-0.359 -0.692,-0.414 -0.802,0c-1.328,5.109 -0.83,10.438 1.411,15.188c0.194,0.414 0.941,0.111 0.747,-0.331c-0.941,-2.375 -2.407,-4.391 -4.427,-5.993c-0.277,-0.22 -0.72,-0.082 -0.72,0.304c0.056,9.969 2.657,19.8 7.555,28.498c0.221,-0.165 0.442,-0.331 0.664,-0.497c-0.498,-0.635 -0.997,-1.27 -1.522,-1.933c-0.222,-0.276 -0.747,-0.055 -0.72,0.304c0.637,5.523 2.574,10.742 5.701,15.326c0.276,0.387 0.83,0.138 0.747,-0.331c-0.139,-0.774 -1.052,-1.05 -1.688,-0.58c-1.162,0.828 -0.028,2.789 0.387,3.728c1.577,3.507 3.929,6.572 6.835,9.085c0.581,0.303 1.162,-0.276 0.747,-0.608z" fill="#e8e8e8" stroke="none" stroke-width="1"></path><path d="M91.9629,236.222c-0.3598,-5.191 9.0761,-2.209 11.7051,-1.712c4.316,0.801 8.606,1.602 12.922,2.403c8.606,1.601 17.239,3.203 25.845,4.805c0.526,0.11 0.747,-0.691 0.221,-0.801c-9.878,-1.85 -19.729,-3.673 -29.608,-5.523c-4.842,-0.911 -9.685,-1.823 -14.5271,-2.706c-1.7432,-0.332 -3.7632,-0.691 -5.3958,0.221c-1.2453,0.662 -2.0754,1.877 -1.9647,3.313c0,0.525 0.8578,0.525 0.8025,0z" fill="#e8e8e8" stroke="none" stroke-width="1"></path><path d="M136.707,240.806c2.878,0.304 4.649,-2.43 6.89,-3.755c1.91,-1.105 3.57,-0.249 5.535,0.138c2.186,0.442 4.427,0.497 6.641,0.221c0.525,-0.056 0.525,-0.884 0,-0.829c-2.491,0.304 -4.981,0.194 -7.416,-0.414c-1.467,-0.387 -2.795,-0.856 -4.261,-0.276c-2.602,0.994 -4.373,4.418 -7.389,4.087c-0.525,-0.055 -0.525,0.773 0,0.828z" fill="#e8e8e8" stroke="none" stroke-width="1"></path><path d="M189.476,293.909c6.641,-2.32 13.338,-4.64 20.2,-6.297c7.167,-1.712 14.389,-2.402 21.75,-2.181c7.277,0.221 14.499,1.049 21.749,1.712c7.278,0.69 14.555,1.353 21.833,2.044c8.357,0.773 16.741,1.546 25.098,2.347c0.525,0.055 0.525,-0.773 0,-0.829c-14.915,-1.38 -29.83,-2.761 -44.772,-4.169c-14.362,-1.326 -28.806,-3.287 -43.112,-0.332c-7.859,1.629 -15.441,4.28 -22.995,6.904c-0.47,0.165 -0.249,0.966 0.249,0.801z" fill="#e8e8e8" stroke="none" stroke-width="1"></path><path d="M218.725,266.736c4.953,-1.049 9.601,-3.12 14.278,-4.998c5.008,-1.988 10.072,-3.369 15.44,-3.838c5.424,-0.47 10.875,-0.194 16.271,0.138c5.424,0.331 10.847,0.718 16.298,1.104c6.337,0.47 12.702,0.994 19.038,1.547c0.526,0.055 0.526,-0.774 0,-0.829c-11.234,-0.994 -22.469,-1.85 -33.731,-2.568c-10.709,-0.69 -21.251,-0.966 -31.462,2.817c-5.424,2.016 -10.681,4.584 -16.381,5.799c-0.471,0.138 -0.277,0.939 0.249,0.828z" fill="#e8e8e8" stroke="none" stroke-width="1"></path><path d="M282.507,234.897c3.957,-3.01 8.135,-5.965 12.562,-8.229c2.159,-1.105 4.483,-1.989 6.918,-2.182c2.629,-0.221 5.258,0.304 7.831,0.635c5.23,0.635 10.488,1.022 15.745,1.353c3.487,0.221 7.914,0.718 10.377,-2.319c0.332,-0.415 -0.249,-0.994 -0.581,-0.58c-2.795,3.452 -8.689,2.154 -12.508,1.905c-5.257,-0.359 -10.459,-0.856 -15.689,-1.519c-2.242,-0.276 -4.455,-0.497 -6.697,-0.082c-2.213,0.386 -4.289,1.27 -6.253,2.319c-4.262,2.264 -8.302,5.081 -12.148,8.008c-0.387,0.304 0.028,1.022 0.443,0.691z" fill="#e8e8e8" stroke="none" stroke-width="1"></path><path d="M130.177,230.34c3.929,-2.954 7.886,-5.882 11.815,-8.836c3.764,-2.817 7.278,-5.772 12.203,-6.02c4.649,-0.221 9.409,0.304 14.03,0.69c4.981,0.414 9.934,0.967 14.859,1.657c4.151,0.58 9.104,2.126 13.033,-0.028c0.471,-0.248 0.056,-0.966 -0.415,-0.718c-2.02,1.105 -4.261,1.105 -6.502,0.829c-2.408,-0.304 -4.815,-0.718 -7.223,-1.05c-4.648,-0.635 -9.325,-1.159 -14.029,-1.546c-4.621,-0.387 -9.408,-0.939 -14.029,-0.663c-4.289,0.249 -7.471,2.458 -10.82,4.971c-4.455,3.314 -8.882,6.655 -13.337,9.969c-0.415,0.359 0,1.077 0.415,0.745z" fill="#e8e8e8" stroke="none" stroke-width="1"></path><path d="M285.855,259.529c0.249,-1.823 0.609,-3.59 1.135,-5.357c0.249,-0.829 0.498,-1.657 0.83,-2.486c0.193,-0.497 0.719,-1.325 1.439,-1.132c0.359,0.111 0.525,1.353 0.553,1.602c0.055,0.442 0.664,0.58 0.802,0.11c1.301,-4.225 2.795,-8.864 6.78,-11.322c-0.221,-0.11 -0.415,-0.248 -0.637,-0.359c0,0.691 -0.027,1.409 -0.027,2.099c0,0.387 0.581,0.58 0.775,0.221c2.462,-5.109 5.146,-10.466 10.127,-13.559c-0.193,-0.165 -0.415,-0.303 -0.609,-0.469c-2.49,6.434 -5.395,12.702 -8.688,18.778c-0.222,0.386 0.332,0.883 0.664,0.497c1.854,-2.209 3.735,-4.419 6.171,-6.02c-0.194,-0.194 -0.388,-0.387 -0.582,-0.58c-3.071,6.462 -6.419,12.758 -10.1,18.888c-0.276,0.469 0.443,0.884 0.72,0.414c3.652,-6.13 7.028,-12.426 10.1,-18.888c0.166,-0.331 -0.194,-0.828 -0.581,-0.58c-2.491,1.657 -4.428,3.894 -6.337,6.158c0.221,0.166 0.443,0.332 0.664,0.497c3.321,-6.13 6.254,-12.454 8.772,-18.971c0.138,-0.331 -0.332,-0.635 -0.609,-0.469c-5.119,3.175 -7.886,8.615 -10.432,13.862c0.249,0.083 0.526,0.138 0.775,0.221c0,-0.69 0.028,-1.408 0.028,-2.099c0,-0.303 -0.36,-0.524 -0.637,-0.359c-4.15,2.568 -5.783,7.373 -7.139,11.819c0.277,0.028 0.553,0.083 0.802,0.111c-0.138,-1.409 -1.411,-3.811 -2.96,-2.016c-0.775,0.911 -1.08,2.402 -1.412,3.535c-0.553,1.822 -0.94,3.7 -1.217,5.605c-0.028,0.553 0.747,0.773 0.83,0.249z" fill="#e8e8e8" stroke="none" stroke-width="1"></path><path d="M92.5164,212.916c2.1583,-1.16 4.3444,-2.32 6.7241,-2.955c2.5185,-0.663 5.0085,-0.442 7.5265,-0.11c5.009,0.662 10.017,1.325 14.998,1.988c0.526,0.083 0.526,-0.746 0,-0.829c-5.341,-0.718 -10.709,-1.491 -16.049,-2.126c-2.463,-0.304 -4.815,-0.304 -7.195,0.387c-2.269,0.662 -4.372,1.795 -6.4473,2.899c-0.4705,0.304 -0.0277,0.994 0.4427,0.746z" fill="#e8e8e8" stroke="none" stroke-width="1"></path><path d="M260.84,25.6074c1.993,-1.6844 4.787,-1.3531 6.973,-0.2761c1.661,0.8008 3.017,2.4301 4.954,2.5129c1.798,0.0552 3.292,-1.1598 4.814,-1.9606c1.024,-0.5247 2.076,-0.8837 3.238,-0.6352c1.245,0.2486 2.324,0.9665 3.459,1.4636c3.735,1.6293 6.226,-0.6351 9.38,-2.4301c0.886,-0.497 1.827,-0.9388 2.85,-1.0217c1.301,-0.1104 2.463,0.4695 3.625,0.9665c1.827,0.7732 3.21,1.077 5.064,0.3314c1.909,-0.7456 3.459,-0.6351 5.368,0.0552c1.218,0.4418 2.38,0.9941 3.653,1.2703c1.909,0.4418 3.957,0.3313 5.396,-1.1322c0.387,-0.3866 -0.222,-0.9665 -0.581,-0.5799c-1.854,1.8778 -4.677,0.9941 -6.807,0.1657c-2.159,-0.8285 -4.372,-1.7121 -6.669,-0.8561c-1.439,0.5523 -2.408,0.9389 -3.957,0.4142c-1.052,-0.3589 -2.02,-0.9388 -3.099,-1.2426c-1.633,-0.4971 -3.155,-0.2209 -4.649,0.5247c-1.716,0.856 -3.21,2.2091 -5.009,2.9271c-2.379,0.9389 -4.233,-0.3038 -6.392,-1.215c-1.577,-0.6628 -3.071,-0.7732 -4.648,-0.0829c-1.91,0.8561 -3.764,2.7338 -6.005,1.933c-1.19,-0.4142 -2.131,-1.3807 -3.21,-1.9882c-0.913,-0.4971 -1.909,-0.8561 -2.933,-1.0494c-1.965,-0.3589 -3.874,-0.0276 -5.424,1.2703c-0.387,0.4142 0.222,0.9941 0.609,0.6351z" fill="#e8e8e8" stroke="none" stroke-width="1"></path><path d="M270.802,44.468c0.526,0 0.526,-0.8285 0,-0.8285c-0.526,0 -0.526,0.8285 0,0.8285z" fill="#e8e8e8" stroke="none" stroke-width="1"></path><path d="M276.336,47.478c1.301,-2.3473 4.372,-1.2151 6.281,-0.4419c1.91,0.7732 3.625,1.2427 5.645,0.5523c1.661,-0.5799 3.155,-1.6845 4.87,-2.0711c2.38,-0.5522 3.736,1.4636 5.894,1.9331c3.376,0.7455 6.78,-3.01 9.962,-1.436c0.886,0.4418 1.494,1.0217 2.546,0.9389c0.968,-0.0552 1.854,-0.5247 2.795,-0.7456c2.628,-0.6075 5.368,-0.1381 7.72,1.1598c0.47,0.2485 0.885,-0.4694 0.415,-0.718c-1.494,-0.8284 -3.099,-1.3255 -4.787,-1.4911c-0.858,-0.0829 -1.743,-0.0553 -2.601,0.0828c-1.024,0.1381 -1.965,0.5799 -2.961,0.7732c-1.356,0.2485 -1.937,-0.4142 -3.044,-0.8837c-0.553,-0.2209 -1.162,-0.3313 -1.743,-0.3037c-1.384,0.0552 -2.712,0.6351 -3.985,1.1046c-1.632,0.6075 -3.376,1.1874 -5.036,0.3589c-1.411,-0.6903 -2.518,-1.7397 -4.178,-1.7397c-3.432,0.0277 -5.839,3.3138 -9.464,2.3197c-2.684,-0.7456 -7.001,-3.369 -8.993,0.1656c-0.304,0.4971 0.415,0.9113 0.664,0.4419z" fill="#e8e8e8" stroke="none" stroke-width="1"></path><path d="M249.495,80.5323c1.965,-1.5464 4.206,-1.4635 6.364,-0.4694c1.19,0.5523 2.463,1.077 3.708,0.3314c0.72,-0.4419 1.19,-1.1322 2.048,-1.3807c0.913,-0.2762 1.882,-0.0829 2.767,0.138c1.577,0.3866 3.099,1.077 4.732,1.1874c1.937,0.1381 3.708,-0.6903 5.59,-0.8836c2.02,-0.1933 3.431,1.0217 5.312,1.2978c1.827,0.2486 3.238,-1.215 5.064,-0.9388c2.214,0.3313 4.4,1.0769 6.586,1.6292c0.526,0.1381 0.747,-0.6627 0.221,-0.8008c-2.296,-0.5799 -4.676,-1.4636 -7.028,-1.7121c-1.992,-0.2209 -3.431,1.4083 -5.424,0.8008c-1.854,-0.5523 -3.182,-1.3531 -5.174,-1.0769c-2.131,0.3037 -4.068,1.1321 -6.254,0.6627c-1.688,-0.359 -3.32,-1.1598 -5.064,-1.2702c-0.636,-0.0277 -1.3,0.0276 -1.909,0.2761c-0.775,0.3038 -1.19,0.9389 -1.909,1.3531c-1.661,0.9665 -3.902,-1.077 -5.673,-1.215c-1.688,-0.1381 -3.237,0.4418 -4.566,1.4635c-0.415,0.359 0.194,0.9389 0.609,0.6075z" fill="#e8e8e8" stroke="none" stroke-width="1"></path><path d="M90.8561,20.2779c0.5258,0 0.5258,-0.8284 0,-0.8284c-0.5258,0 -0.5258,0.8284 0,0.8284z" fill="#e8e8e8" stroke="none" stroke-width="1"></path><path d="M93.2911,20.913c0.4981,-2.4577 3.7633,-0.8837 4.9531,-0.1381c1.3559,0.856 2.7948,1.6292 4.4548,1.1598c1.799,-0.5247 3.016,-2.0711 5.009,-2.1815c1.881,-0.0829 3.708,0.7732 5.479,1.3254c1.522,0.4695 3.127,0.8009 4.704,0.4143c1.854,-0.4419 3.431,-1.7397 5.313,-2.0711c3.708,-0.6352 7.056,2.3748 10.819,1.215c0.498,-0.1657 0.304,-0.9665 -0.221,-0.8008c-3.93,1.2426 -7.665,-2.2368 -11.65,-0.9941c-2.048,0.6351 -3.763,2.0711 -6.005,1.9882c-2.075,-0.0828 -3.956,-1.0769 -5.921,-1.574c-1.55,-0.3866 -3.127,-0.4971 -4.621,0.1933c-0.858,0.3866 -1.605,1.0217 -2.463,1.4359c-1.411,0.6628 -2.601,0.2762 -3.8739,-0.4418c-1.3836,-0.8008 -2.5735,-1.7397 -4.2614,-1.6016c-1.1899,0.0828 -2.2414,0.6903 -2.4628,1.9054c-0.1383,0.4694 0.6642,0.6903 0.7472,0.1657z" fill="#e8e8e8" stroke="none" stroke-width="1"></path><path d="M95.8093,182.153c3.2928,-1.38 6.6137,1.077 9.9337,1.243c1.716,0.083 3.376,-0.331 5.064,-0.663c2.131,-0.414 3.957,-0.442 6.005,0.414c1.245,0.525 2.379,0.856 3.652,0.359c0.72,-0.276 1.329,-0.745 2.048,-0.994c0.802,-0.276 1.633,-0.331 2.49,-0.331c2.961,0.055 5.922,1.077 8.744,-0.249c0.471,-0.221 0.056,-0.938 -0.415,-0.718c-3.016,1.409 -6.364,-0.138 -9.546,0.194c-1.522,0.165 -2.518,1.049 -3.929,1.463c-1.688,0.497 -3.349,-0.939 -5.009,-1.187c-3.57,-0.552 -6.945,1.436 -10.543,0.718c-2.877,-0.58 -5.783,-2.265 -8.7161,-1.022c-0.4704,0.193 -0.249,0.994 0.2214,0.773z" fill="#e8e8e8" stroke="none" stroke-width="1"></path><path d="M35.9841,141.477c2.4146,0 4.3721,-1.953 4.3721,-4.363c0,-2.409 -1.9575,-4.363 -4.3721,-4.363c-2.4146,0 -4.372,1.954 -4.372,4.363c0,2.41 1.9574,4.363 4.372,4.363z" fill="#94d82d" stroke="none" stroke-width="1"></path><path d="M290.476,111.488c1.696,0 3.072,-1.372 3.072,-3.065c0,-1.693 -1.376,-3.065 -3.072,-3.065c-1.696,0 -3.071,1.372 -3.071,3.065c0,1.693 1.375,3.065 3.071,3.065z" fill="#94d82d" stroke="none" stroke-width="1"></path><path d="M262.833,4.70331c1.253,0 2.269,-1.01379 2.269,-2.26437c0,-1.25058 -1.016,-2.26438 -2.269,-2.26438c-1.254,0 -2.269,1.0138 -2.269,2.26438c0,1.25058 1.015,2.26437 2.269,2.26437z" fill="#94d82d" stroke="none" stroke-width="1"></path><path d="M162.884,201.069c1.559,0 2.823,-1.261 2.823,-2.817c0,-1.555 -1.264,-2.816 -2.823,-2.816c-1.559,0 -2.822,1.261 -2.822,2.816c0,1.556 1.263,2.817 2.822,2.817z" fill="#94d82d" stroke="none" stroke-width="1"></path><path d="M32.7742,41.0991c1.788,0 3.2375,-1.4465 3.2375,-3.2309c0,-1.7844 -1.4495,-3.2309 -3.2375,-3.2309c-1.7881,0 -3.2376,1.4465 -3.2376,3.2309c0,1.7844 1.4495,3.2309 3.2376,3.2309z" fill="#94d82d" stroke="none" stroke-width="1"></path><path d="M144.4,154.456c1.024,0 1.854,-0.828 1.854,-1.85c0,-1.022 -0.83,-1.85 -1.854,-1.85c-1.024,0 -1.854,0.828 -1.854,1.85c0,1.022 0.83,1.85 1.854,1.85z" fill="#94d82d" stroke="none" stroke-width="1"></path><path d="M319.392,170.196c1.559,0 2.823,-1.261 2.823,-2.816c0,-1.556 -1.264,-2.817 -2.823,-2.817c-1.558,0 -2.822,1.261 -2.822,2.817c0,1.555 1.264,2.816 2.822,2.816z" fill="#94d82d" stroke="none" stroke-width="1"></path><path d="M11.7441,216.754c1.1615,0 2.103,-0.94 2.103,-2.099c0,-1.159 -0.9415,-2.098 -2.103,-2.098c-1.1614,0 -2.10299,0.939 -2.10299,2.098c0,1.159 0.94159,2.099 2.10299,2.099z" fill="#94d82d" stroke="none" stroke-width="1"></path><path d="M97.7461,53.6636c-2.4074,4.8878 -4.8425,9.7755 -7.2499,14.6633c9.9618,13.3377 19.9228,26.6478 29.8848,39.9851c2.574,-3.893 5.119,-7.87 7.693,-11.8737c6.06,-9.4994 11.843,-18.8882 17.377,-28.1943c-1.881,-4.7773 -3.791,-9.5822 -5.672,-14.3594c-1.218,-0.6352 -2.435,-1.2427 -3.653,-1.8778c-11.788,0.0276 -23.576,0.0552 -35.336,0.0828c-1.0516,0.5523 -2.0478,1.077 -3.0439,1.574z" fill="#ffffff" stroke="none" stroke-width="1"></path><path d="M90.8283,68.5478c2.103,-4.6116 4.2614,-9.1956 6.4751,-13.7519c0.2213,-0.4695 -0.4705,-0.9113 -0.7195,-0.4143c-2.2137,4.5564 -4.3721,9.1404 -6.4751,13.752c-0.2214,0.4694 0.4981,0.9113 0.7195,0.4142z" fill="#000000" stroke="none" stroke-width="1"></path><path d="M90.2748,69.0448c9.7402,13.3378 19.6742,26.5098 29.8022,39.5712c0.332,0.414 0.913,-0.165 0.581,-0.58c-10.073,-13.006 -19.951,-26.1229 -29.6637,-39.4054c-0.3044,-0.4142 -1.0238,0 -0.7195,0.4142z" fill="#000000" stroke="none" stroke-width="1"></path><path d="M97.4971,54.3264c1.1621,-0.6075 2.2967,-1.2427 3.4589,-1.8502c0.47,-0.2485 0.055,-0.9665 -0.415,-0.7179c-1.1623,0.6075 -2.2968,1.2426 -3.459,1.8501c-0.4981,0.2762 -0.0554,0.9665 0.4151,0.718z" fill="#000000" stroke="none" stroke-width="1"></path><path d="M101.648,52.5314c8.633,0 17.294,0 25.928,0c0.525,0 0.525,-0.8284 0,-0.8284c-8.634,0 -17.295,0 -25.928,0c-0.526,0 -0.526,0.8284 0,0.8284z" fill="#000000" stroke="none" stroke-width="1"></path><path d="M145.839,68.1611c-1.744,-4.6115 -3.542,-9.1679 -5.396,-13.7519c-0.194,-0.497 -0.996,-0.2761 -0.803,0.2209c1.854,4.5564 3.653,9.1404 5.396,13.752c0.194,0.497 0.996,0.2761 0.803,-0.221z" fill="#000000" stroke="none" stroke-width="1"></path><path d="M144.925,68.5754c-8.107,13.2549 -16.381,26.427 -24.821,39.4886c-0.304,0.442 0.415,0.856 0.72,0.414c8.44,-13.0614 16.713,-26.2059 24.821,-39.4884c0.277,-0.4418 -0.443,-0.8836 -0.72,-0.4142z" fill="#000000" stroke="none" stroke-width="1"></path><path d="M139.945,53.5533c-0.969,-0.6076 -1.937,-1.2427 -2.906,-1.8502c-0.443,-0.2762 -0.858,0.4142 -0.415,0.718c0.969,0.6075 1.937,1.2426 2.906,1.8501c0.47,0.3038 0.885,-0.4142 0.415,-0.7179z" fill="#000000" stroke="none" stroke-width="1"></path><path d="M136.098,51.6202c-7.222,0 -14.444,0 -21.639,0c-0.525,0 -0.525,0.8285 0,0.8285c7.223,0 14.445,0 21.639,0c0.526,0 0.526,-0.8285 0,-0.8285z" fill="#000000" stroke="none" stroke-width="1"></path><path d="M91.1605,68.962c4.9531,-2.1263 9.9065,-4.2526 14.8595,-6.3789c0.498,-0.2209 0.055,-0.9113 -0.415,-0.718c-4.953,2.1263 -9.9065,4.2526 -14.8596,6.3789c-0.4704,0.221 -0.0554,0.9389 0.4151,0.718z" fill="#000000" stroke="none" stroke-width="1"></path><path d="M97.6354,54.0779c3.0436,0.4694 6.0326,1.1322 8.9926,1.9606c0.526,0.1381 0.748,-0.6627 0.222,-0.8008c-2.961,-0.8561 -5.949,-1.4912 -8.9933,-1.9606c-0.5257,-0.0829 -0.7748,0.7179 -0.2213,0.8008z" fill="#000000" stroke="none" stroke-width="1"></path><path d="M106.407,55.9005c0.664,2.0711 1.245,4.1421 1.743,6.2684c0.111,0.5247 0.914,0.3038 0.803,-0.2209c-0.498,-2.1263 -1.079,-4.1974 -1.743,-6.2684c-0.166,-0.4971 -0.969,-0.3038 -0.803,0.2209z" fill="#000000" stroke="none" stroke-width="1"></path><path d="M107.68,55.9833c7.416,0 14.804,0 22.22,0c0.526,0 0.526,-0.8285 0,-0.8285c-7.416,0 -14.804,0 -22.22,0c-0.526,0 -0.526,0.8285 0,0.8285z" fill="#000000" stroke="none" stroke-width="1"></path><path d="M129.54,56.149c-0.276,1.5188 -0.553,3.0652 -0.83,4.584c-0.083,0.5247 0.72,0.7456 0.803,0.2209c0.276,-1.5188 0.553,-3.0652 0.83,-4.584c0.083,-0.5247 -0.72,-0.7456 -0.803,-0.2209z" fill="#000000" stroke="none" stroke-width="1"></path><path d="M108.593,62.2241c6.475,0 12.95,0 19.453,0c0.526,0 0.526,-0.8285 0,-0.8285c-6.475,0 -12.95,0 -19.453,0c-0.526,0 -0.526,0.8285 0,0.8285z" fill="#000000" stroke="none" stroke-width="1"></path><path d="M130.703,55.9833c3.016,-0.6351 6.004,-1.2703 9.02,-1.9054c0.526,-0.1104 0.305,-0.9113 -0.221,-0.8008c-3.016,0.6351 -6.005,1.2703 -9.021,1.9054c-0.526,0.1104 -0.304,0.9113 0.222,0.8008z" fill="#000000" stroke="none" stroke-width="1"></path><path d="M129.319,61.9756c2.795,0.4418 5.396,2.0158 7.942,3.2032c2.711,1.2703 5.395,2.5406 8.107,3.8108c0.471,0.2209 0.913,-0.497 0.415,-0.718c-2.877,-1.3531 -5.728,-2.6785 -8.605,-4.0316c-2.435,-1.1598 -4.954,-2.6234 -7.638,-3.0652c-0.525,-0.0829 -0.747,0.7179 -0.221,0.8008z" fill="#000000" stroke="none" stroke-width="1"></path><path d="M108.842,63.4944c3.598,14.8013 7.167,29.6302 10.764,44.4316c0.139,0.525 0.913,0.304 0.803,-0.221c-3.597,-14.8013 -7.167,-29.6302 -10.764,-44.4315c-0.139,-0.5247 -0.941,-0.3038 -0.803,0.2209z" fill="#000000" stroke="none" stroke-width="1"></path><path d="M128.157,64.4885c-3.376,14.249 -6.171,28.6637 -8.329,43.1615c-0.083,0.524 0.719,0.745 0.802,0.221c2.158,-14.4979 4.953,-28.885 8.329,-43.1616c0.139,-0.5247 -0.664,-0.7456 -0.802,-0.2209z" fill="#000000" stroke="none" stroke-width="1"></path><path d="M128.433,36.8466c1.246,-3.1757 1.937,-6.517 2.048,-9.9412c0.028,-0.5247 -0.802,-0.5247 -0.83,0c-0.111,3.3413 -0.802,6.5998 -2.02,9.7203c-0.194,0.497 0.609,0.6903 0.802,0.2209z" fill="#000000" stroke="none" stroke-width="1"></path><path d="M134.106,37.3988c2.656,-3.01 5.645,-5.661 8.993,-7.8977c0.443,-0.3038 0.028,-1.0217 -0.415,-0.718c-3.403,2.2644 -6.475,4.9706 -9.159,8.0358c-0.36,0.3866 0.221,0.9665 0.581,0.5799z" fill="#000000" stroke="none" stroke-width="1"></path><path d="M139.557,42.5075c3.432,-1.0217 6.973,-1.4083 10.543,-1.1322c0.526,0.0276 0.526,-0.8008 0,-0.8284c-3.653,-0.2762 -7.25,0.1104 -10.764,1.1598c-0.498,0.1657 -0.304,0.9665 0.221,0.8008z" fill="#000000" stroke="none" stroke-width="1"></path><path d="M81.2541,23.1498c0.332,5.4676 -2.7395,10.6868 -7.665,13.0616c-0.2767,0.1381 -0.249,0.5523 0,0.718c4.5104,2.7062 6.5858,7.6768 7.7757,12.5645c0.1383,0.5247 0.9131,0.3038 0.8024,-0.2209c-1.2452,-5.1087 -3.4589,-10.2726 -8.163,-13.0616c0,0.2485 0,0.4694 0,0.718c5.1745,-2.5129 8.4397,-8.0634 8.08,-13.7796c-0.0277,-0.5247 -0.8578,-0.5247 -0.8301,0z" fill="#e8e8e8" stroke="none" stroke-width="1"></path><path d="M81.5584,23.1498c-0.3597,5.7438 2.9055,11.2943 8.08,13.7796c0,-0.2486 0,-0.4695 0,-0.718c-4.7318,2.8166 -6.9455,7.9805 -8.1907,13.1168c-0.1383,0.5247 0.6641,0.7456 0.8025,0.2209c1.1899,-4.9153 3.2652,-9.9135 7.8033,-12.6197c0.249,-0.1381 0.2767,-0.5799 0,-0.718c-4.9255,-2.3749 -8.0247,-7.594 -7.6926,-13.0616c0.0553,-0.5247 -0.7748,-0.5247 -0.8025,0z" fill="#e8e8e8" stroke="none" stroke-width="1"></path><path d="M216.29,230.451c0.968,-0.414 2.296,-1.022 3.818,-1.878c2.546,-1.408 3.819,-2.126 4.594,-3.258c0.996,-1.492 0.608,-2.292 1.909,-3.784c0.194,-0.248 1.107,-1.215 2.297,-1.739c2.047,-0.856 3.957,0.165 7.139,1.298c2.933,1.049 5.23,1.546 9.823,2.568c1.826,0.414 4.04,0.828 7.25,1.822c0.913,0.276 1.633,0.525 2.131,0.691c0.055,0.58 0.083,2.071 -0.886,3.424c-0.443,0.607 -1.051,1.104 -2.02,1.546c-2.241,1.05 -4.372,0.856 -6.171,0.773c-3.874,-0.165 -2.269,0.387 -11.4,0.553c-1.992,0.027 -3.625,0.027 -4.76,0.027c-1.411,0.967 -2.822,1.961 -4.261,2.983c-2.435,1.767 -4.759,3.534 -6.973,5.274c-0.83,-3.424 -1.66,-6.876 -2.49,-10.3z" fill="#000000" stroke="none" stroke-width="1"></path><path d="M204.751,195.105c-1.993,1.049 -2.214,1.435 -9.63,7.732c-11.566,9.803 -12.839,10.327 -23.327,19.468c-10.044,8.726 -11.926,10.907 -13.835,13.779c-4.76,7.263 -5.811,13.338 -6.116,16.293c-0.415,3.976 -0.968,9.499 2.546,13.862c2.214,2.734 5.092,3.866 6.06,4.225c2.906,1.105 5.285,0.967 9.574,0.663c5.701,-0.414 10.045,-1.519 11.761,-1.988c1.881,-0.525 6.253,-1.823 11.732,-4.529c5.147,-2.541 7.361,-4.418 14.389,-9.14c3.127,-2.099 7.748,-5.164 13.559,-8.699c0.36,-2.761 0.056,-4.915 -0.249,-6.268c-0.719,-3.204 -2.186,-5.413 -3.818,-7.843c-1.329,-1.988 -2.602,-3.507 -3.487,-4.501c2.075,-1.574 4.787,-3.838 7.637,-6.876c1.91,-2.044 4.926,-5.302 7.444,-9.886c3.099,-5.633 6.198,-11.322 4.206,-15.243c-3.127,-6.158 -18.014,-6.434 -28.446,-1.049z" fill="#ffffff" stroke="none" stroke-width="1"></path><path d="M229.544,198.115c-1.577,3.645 -4.178,8.808 -8.329,14.331c-6.032,7.981 -12.12,12.399 -21.307,18.944c-25.983,18.501 -32.956,22.726 -32.181,24.494c1.051,2.402 15.689,-1.906 17.82,-2.541c15.551,-4.584 27.007,-11.653 34.174,-16.817c-1.826,-2.789 -3.653,-5.578 -5.479,-8.339c2.241,-1.602 5.341,-4.143 8.246,-7.926c1.605,-2.071 4.04,-5.274 5.617,-10.107c1.605,-4.805 1.661,-9.085 1.439,-12.039z" fill="#9b9797" stroke="none" stroke-width="1" opacity="0.18"></path><path d="M204.64,195.077c-9.851,7.318 -19.453,14.995 -28.695,23.03c-4.427,3.839 -8.855,7.677 -13.005,11.792c-3.681,3.645 -7.112,7.677 -9.187,12.481c-2.159,4.971 -2.767,10.715 -2.242,16.1c0.443,4.446 2.076,8.919 6.143,11.239c4.262,2.402 9.63,2.154 14.334,1.657c5.783,-0.58 11.484,-1.989 16.879,-4.17c12.037,-4.888 21.473,-14.028 32.846,-20.076c0.471,-0.248 0.056,-0.966 -0.415,-0.718c-9.491,5.054 -17.571,12.344 -27.09,17.397c-4.981,2.651 -10.349,4.584 -15.883,5.772c-5.119,1.077 -10.875,1.905 -16.077,0.911c-2.435,-0.47 -4.787,-1.464 -6.531,-3.286c-1.688,-1.795 -2.601,-4.142 -3.071,-6.545c-1.024,-5.219 -0.554,-11.128 1.162,-16.154c1.716,-5.026 5.064,-9.251 8.716,-13.007c3.791,-3.893 7.942,-7.483 12.01,-11.045c9.823,-8.616 20.006,-16.845 30.521,-24.632c0.415,-0.332 0.028,-1.05 -0.415,-0.746z" fill="#000000" stroke="none" stroke-width="1"></path><path d="M177.522,251.686c9.076,-3.507 17.295,-8.753 25.098,-14.497c3.846,-2.817 7.637,-5.744 11.401,-8.671c3.708,-2.9 7.249,-5.965 10.127,-9.693c0.332,-0.414 -0.387,-0.828 -0.719,-0.414c-2.933,3.811 -6.614,6.876 -10.377,9.831c-3.708,2.899 -7.443,5.771 -11.262,8.56c-7.637,5.578 -15.634,10.715 -24.489,14.111c-0.498,0.166 -0.277,0.967 0.221,0.773z" fill="#000000" stroke="none" stroke-width="1"></path><path d="M213.606,228.435c5.34,4.474 8.163,11.405 7.415,18.336c-0.055,0.525 0.775,0.525 0.831,0c0.747,-7.124 -2.186,-14.304 -7.665,-18.916c-0.388,-0.359 -0.969,0.221 -0.581,0.58z" fill="#000000" stroke="none" stroke-width="1"></path><path d="M220.966,239.067c1.577,-0.47 2.961,-1.795 4.289,-2.734c1.66,-1.16 3.293,-2.32 4.953,-3.48c0.443,-0.303 0.028,-1.021 -0.415,-0.718c-1.494,1.05 -3.016,2.127 -4.51,3.176c-1.384,0.967 -2.906,2.458 -4.538,2.955c-0.526,0.138 -0.305,0.939 0.221,0.801z" fill="#000000" stroke="none" stroke-width="1"></path><path d="M216.4,230.837c3.127,-1.297 6.005,-3.065 8.606,-5.246c0.415,-0.359 -0.194,-0.939 -0.581,-0.58c-2.463,2.099 -5.23,3.783 -8.218,5.026c-0.499,0.221 -0.277,1.021 0.193,0.8z" fill="#000000" stroke="none" stroke-width="1"></path><path d="M224.702,225.232c0.525,0 0.525,-0.829 0,-0.829c-0.526,0 -0.526,0.829 0,0.829z" fill="#000000" stroke="none" stroke-width="1"></path><path d="M225.698,224.238c0.47,-1.105 0.968,-2.32 1.854,-3.176c1.19,-1.16 2.629,-0.994 4.15,-0.663c2.823,0.635 5.59,1.519 8.357,2.32c2.574,0.718 5.147,1.353 7.803,1.657c1.55,0.165 2.851,0.359 4.234,1.049c1.024,0.497 1.909,0.994 3.044,1.105c0.526,0.055 0.526,-0.773 0,-0.829c-1.522,-0.138 -2.712,-1.187 -4.151,-1.657c-1.439,-0.469 -3.044,-0.441 -4.538,-0.69c-3.265,-0.525 -6.447,-1.519 -9.602,-2.458c-1.549,-0.441 -3.099,-0.883 -4.676,-1.242c-1.162,-0.249 -2.38,-0.553 -3.542,-0.194c-2.02,0.608 -2.989,2.762 -3.736,4.557c-0.193,0.497 0.609,0.718 0.803,0.221z" fill="#000000" stroke="none" stroke-width="1"></path><path d="M230.098,233.461c5.921,-0.884 11.787,-1.022 17.764,-1.132c2.076,-0.028 4.289,-0.276 5.95,-1.63c1.411,-1.159 2.213,-2.844 1.826,-4.639c-0.111,-0.524 -0.913,-0.304 -0.802,0.221c0.525,2.513 -1.744,4.363 -3.985,4.916c-2.297,0.552 -4.787,0.276 -7.139,0.331c-4.649,0.083 -9.242,0.469 -13.836,1.16c-0.526,0.055 -0.277,0.856 0.222,0.773z" fill="#000000" stroke="none" stroke-width="1"></path><path d="M251.1,227.965c2.048,-1.463 4.123,-2.927 6.171,-4.39c0.138,-0.939 0.581,-2.983 2.269,-4.722c0.498,-0.525 1.66,-1.74 3.403,-2.071c1.827,-0.359 3.238,0.469 4.815,1.187c2.546,1.16 5.008,1.602 9.879,2.541c3.846,0.718 5.783,1.077 8.55,0.938c3.763,-0.22 6.447,-1.215 8.052,0.359c0.166,0.166 0.858,0.912 0.803,1.823c-0.083,1.16 -1.328,1.905 -2.325,2.485c-4.344,2.486 -6.779,3.204 -6.779,3.204c-6.143,1.794 -9.242,2.706 -11.899,2.927c-2.158,0.165 -5.23,0.248 -8.937,-0.332c-1.08,3.701 -4.345,6.075 -7.416,5.882c-3.957,-0.248 -7.61,-4.694 -6.586,-9.831z" fill="#000000" stroke="none" stroke-width="1"></path><path d="M211.364,203.554c0.609,-1.85 1.743,-4.197 3.874,-4.97c1.384,-0.497 2.656,-0.166 3.072,-0.055c2.573,0.635 7.858,-0.277 18.401,-2.072c5.23,-0.883 11.843,-2.181 19.453,-4.114c0.027,1.408 0,3.258 -0.083,5.412c-0.194,4.833 -0.692,8.478 -0.803,9.334c-0.47,3.424 -1.3,9.113 -3.818,16.016c-0.637,1.768 -1.273,3.231 -1.716,4.225c1.079,0.497 2.241,1.16 3.376,2.099c4.676,3.728 6.032,9.002 6.475,11.239c-0.664,0.801 -1.66,1.988 -2.933,3.341c-5.147,5.468 -9.906,8.533 -18.983,14.139c-5.589,3.452 -9.685,5.965 -16.243,9.831c-7.969,4.694 -14.416,8.339 -22.441,10.631c-1.992,0.58 -5.147,1.353 -9.131,0.939c-1.937,-0.193 -5.424,-0.552 -8.772,-2.982c-4.289,-3.093 -5.645,-7.622 -6.199,-9.61c-1.245,-4.446 -0.774,-8.616 0.388,-12.951c0.802,-3.038 3.708,-13.117 13.808,-24.467c2.02,-2.264 7.775,-7.373 19.231,-17.59c2.767,-2.458 5.036,-4.473 6.558,-5.799c-1.162,-0.884 -2.324,-1.74 -3.514,-2.596z" fill="#ffffff" stroke="none" stroke-width="1"></path><path d="M248.997,195.905c-0.637,2.43 -1.66,5.937 -3.21,10.052c-14.14,37.39 -45.741,53.544 -43.167,57.576c1.882,2.982 19.923,-4.446 32.929,-12.261c9.74,-5.854 16.99,-12.123 21.832,-16.845c-0.775,-1.132 -1.964,-2.678 -3.763,-4.142c-1.743,-1.408 -3.404,-2.264 -4.649,-2.789c0.858,-1.243 1.993,-3.12 2.961,-5.523c0.636,-1.546 1.19,-3.203 1.909,-6.572c1.163,-5.33 1.633,-9.555 1.771,-10.88c0.332,-3.176 0.637,-7.29 0.581,-12.151c-2.407,1.16 -4.787,2.348 -7.194,3.535z" fill="#9b9797" stroke="none" stroke-width="1" opacity="0.18"></path><path d="M255.776,192.343c0.028,5.219 -0.304,10.438 -1.023,15.63c-0.665,4.666 -1.495,9.471 -3.21,13.89c-1.854,4.777 -5.037,8.256 -8.883,11.542c-3.929,3.342 -7.886,6.628 -11.843,9.914c-4.538,3.783 -9.104,7.539 -13.642,11.322c-0.415,0.331 0.166,0.911 0.581,0.58c8.329,-6.904 16.658,-13.78 24.932,-20.766c3.652,-3.093 6.973,-6.296 8.965,-10.742c1.937,-4.308 2.878,-9.03 3.625,-13.669c0.941,-5.855 1.384,-11.764 1.328,-17.701c0,-0.552 -0.83,-0.552 -0.83,0z" fill="#000000" stroke="none" stroke-width="1"></path><path d="M211.834,204.328c1.135,0.607 2.27,1.215 3.432,1.822c0.47,0.249 0.885,-0.469 0.415,-0.718c-1.135,-0.607 -2.269,-1.215 -3.431,-1.822c-0.471,-0.249 -0.886,0.469 -0.416,0.718z" fill="#000000" stroke="none" stroke-width="1"></path><path d="M215.266,205.819c-9.851,8.008 -20.2,15.933 -28.419,25.654c-7.083,8.367 -12.922,18.971 -12.894,30.21c0,4.943 1.356,10.107 5.008,13.614c3.653,3.534 8.938,4.915 13.919,4.666c6.087,-0.303 11.871,-2.706 17.294,-5.357c5.811,-2.844 11.318,-6.213 16.852,-9.554c11.4,-6.904 24.129,-13.338 32.68,-23.859c0.332,-0.414 -0.249,-0.994 -0.581,-0.58c-7.167,8.837 -17.24,14.497 -26.842,20.296c-5.285,3.204 -10.515,6.462 -15.91,9.5c-5.286,2.982 -10.792,5.826 -16.631,7.511c-5.479,1.574 -11.594,1.905 -16.769,-0.828c-4.98,-2.596 -7.526,-7.622 -8.052,-13.09c-1.024,-11.045 4.538,-22.036 11.262,-30.431c8.385,-10.466 19.342,-18.805 29.691,-27.2c0.388,-0.304 -0.193,-0.884 -0.608,-0.552z" fill="#000000" stroke="none" stroke-width="1"></path><path d="M249.55,227.662c5.203,2.485 8.827,7.4 9.685,13.089c0.083,0.525 0.886,0.304 0.803,-0.221c-0.858,-5.882 -4.677,-11.046 -10.045,-13.586c-0.498,-0.221 -0.913,0.497 -0.443,0.718z" fill="#000000" stroke="none" stroke-width="1"></path><path d="M251.211,228.38c1.106,-0.442 1.992,-1.188 2.933,-1.906c1.107,-0.856 2.241,-1.684 3.348,-2.54c0.415,-0.332 0,-1.05 -0.415,-0.718c-0.996,0.745 -1.992,1.491 -2.989,2.264c-0.968,0.746 -1.937,1.657 -3.099,2.099c-0.47,0.193 -0.276,0.994 0.222,0.801z" fill="#000000" stroke="none" stroke-width="1"></path><path d="M257.907,223.602c0.553,-1.629 1.218,-3.231 2.103,-4.722c1.218,-2.043 3.044,-1.822 5.092,-1.298c3.182,0.801 6.226,2.016 9.435,2.734c6.226,1.381 12.619,1.85 18.983,1.436c0.526,-0.027 0.526,-0.856 0,-0.828c-7.499,0.497 -15.053,-0.276 -22.303,-2.32c-1.743,-0.497 -3.431,-1.132 -5.175,-1.629c-1.328,-0.387 -2.905,-0.829 -4.289,-0.552c-1.245,0.248 -1.964,1.187 -2.573,2.236c-0.858,1.492 -1.522,3.093 -2.075,4.722c-0.166,0.497 0.636,0.718 0.802,0.221z" fill="#000000" stroke="none" stroke-width="1"></path><path d="M259.097,236.94c2.075,-1.574 4.123,-3.148 6.198,-4.722c0.415,-0.331 0,-1.049 -0.415,-0.718c-2.075,1.574 -4.123,3.148 -6.198,4.722c-0.415,0.331 0,1.049 0.415,0.718z" fill="#000000" stroke="none" stroke-width="1"></path><path d="M265.268,232.025c6.751,1.463 13.641,0.359 20.034,-2.071c2.905,-1.105 6.226,-2.348 8.716,-4.225c1.743,-1.298 1.992,-3.783 -0.304,-4.667c-0.499,-0.193 -0.72,0.607 -0.222,0.801c1.245,0.469 1.384,1.822 0.526,2.761c-0.415,0.47 -0.996,0.773 -1.55,1.105c-1.134,0.635 -2.296,1.215 -3.459,1.767c-2.462,1.16 -5.008,2.154 -7.637,2.927c-5.174,1.491 -10.598,1.988 -15.911,0.829c-0.498,-0.139 -0.719,0.662 -0.193,0.773z" fill="#000000" stroke="none" stroke-width="1"></path><path d="M193.156,112.759c4.206,-3.48 10.488,-7.677 18.872,-10.163c3.929,-1.159 8.855,-2.595 15.385,-2.043c10.017,0.856 16.907,5.771 19.343,7.566c3.818,2.789 6.419,5.744 8.024,7.815c0.305,19.358 0.72,38.743 1.245,58.101c0.166,5.965 0.332,11.957 0.526,17.922c-3.929,2.43 -9.436,5.163 -16.409,6.765c-16.326,3.728 -29.912,-1.243 -35.419,-3.645c-0.028,-4.888 -0.332,-12.233 -1.826,-21.042c-2.435,-14.47 -6.226,-20.297 -8.606,-32.751c-1.19,-6.434 -2.324,-16.099 -1.135,-28.525z" fill="#94d82d" stroke="none" stroke-width="1"></path><path d="M243.186,117.536c-1.356,1.491 -1.605,3.175 -1.522,9.637c0.055,6.793 0.415,11.432 0.637,16.817c0.166,3.894 0.304,6.987 0.221,11.018c-0.083,5.081 -0.415,9.251 -0.72,12.04c-2.711,3.038 -5.119,5.413 -6.917,7.125c-4.04,3.838 -8.44,7.98 -14.943,11.874c-2.573,1.519 -4.787,2.623 -6.281,3.314c-1.356,-0.221 -2.878,-0.553 -4.538,-0.967c-3.93,-0.994 -5.562,-1.878 -8.523,-1.878c-0.885,0 -3.68,0 -3.957,0.994c-0.249,0.829 1.301,2.127 2.518,2.762c1.135,0.58 1.633,0.414 2.767,0.939c1.273,0.607 2.103,1.491 2.601,2.154c-0.525,0.745 -1.328,1.877 -2.213,3.341c-1.024,1.712 -1.246,2.375 -2.435,4.418c-1.246,2.154 -1.882,3.231 -2.435,3.783c-0.858,0.801 -1.384,0.967 -5.23,2.679c-3.819,1.712 -4.483,2.099 -4.483,2.568c0,0.47 0.747,0.58 3.708,1.85c2.407,1.022 2.629,1.243 3.874,1.602c1.549,0.442 2.49,0.718 3.625,0.469c1.798,-0.359 2.961,-1.712 3.459,-2.43c0.249,0.221 0.857,0.691 1.66,0.718c0.636,0 1.162,-0.248 1.577,-0.58c1.743,-1.242 2.601,-3.534 4.317,-6.102c0.304,-0.442 1.383,-2.071 3.127,-3.894c1.079,-1.16 2.075,-2.016 2.795,-2.596c0.968,-0.221 2.407,-0.552 4.123,-1.049c6.668,-1.905 11.483,-4.197 15.523,-6.13c2.352,-1.133 5.009,-2.624 10.294,-5.579c4.593,-2.568 6.973,-4.004 9.076,-6.82c0.221,-0.304 1.356,-1.823 2.352,-4.06c0.304,-0.69 1.384,-3.148 1.965,-7.455c0.276,-1.906 0.276,-2.955 0.304,-8.92c0.055,-7.594 0.055,-6.683 0.055,-7.456c-0.027,-11.128 -0.608,-10.134 -0.802,-20.352c-0.028,-0.966 -0.055,-3.589 -0.858,-6.903c-0.858,-3.59 -1.937,-5.192 -2.546,-5.992c-0.774,-1.022 -1.715,-2.237 -3.32,-2.928c-2.933,-1.297 -6.835,-0.248 -8.855,1.989z" fill="#ffffff" stroke="none" stroke-width="1"></path><path d="M252.068,115.52c0.665,2.181 1.467,5.329 2.02,9.14c0.665,4.612 0.914,9.693 -0.581,22.975c-1.245,11.101 -1.854,16.652 -3.459,21.843c-2.296,7.401 -3.957,12.786 -9.02,17.038c-3.266,2.734 -6.835,4.004 -14.002,6.517c-5.258,1.85 -9.768,2.955 -12.867,3.645c-2.214,2.983 -5.507,6.766 -10.183,10.356c-3.653,2.816 -7.167,4.749 -10.072,6.075c0.415,0.276 2.13,1.381 4.455,1.077c2.711,-0.359 4.178,-2.292 4.427,-2.651c0.526,0.387 1.301,0.801 2.158,0.663c1.771,-0.276 2.712,-2.789 3.183,-3.922c1.023,-2.347 3.071,-5.578 7.664,-9.112c3.044,-0.801 7.167,-2.016 11.954,-3.839c6.669,-2.568 11.152,-5.053 15.967,-7.732c7.72,-4.308 9.463,-6.075 10.736,-7.787c2.325,-3.12 3.293,-6.324 3.708,-7.732c0.747,-2.513 0.886,-5.33 1.162,-10.825c0.194,-4.087 0.194,-7.235 0.194,-9.61c0,-4.087 -0.083,-7.124 -0.166,-9.747c-0.111,-3.811 -0.332,-8.285 -0.886,-13.642c-0.415,-3.894 -0.719,-5.44 -1.604,-7.18c-1.356,-2.761 -3.376,-4.528 -4.788,-5.55z" fill="#9b9797" stroke="none" stroke-width="1" opacity="0.25"></path><path d="M242.771,117.425c-1.439,3.59 -1.605,7.456 -1.522,11.294c0.083,4.225 0.304,8.423 0.498,12.648c0.388,8.56 0.664,17.148 -0.36,25.681c-0.055,0.525 0.775,0.525 0.831,0c0.996,-8.339 0.774,-16.762 0.387,-25.129c-0.194,-4.142 -0.415,-8.284 -0.526,-12.454c-0.111,-4.004 -0.028,-8.036 1.494,-11.819c0.194,-0.497 -0.608,-0.718 -0.802,-0.221z" fill="#000000" stroke="none" stroke-width="1"></path><path d="M242.992,166.33c-2.545,1.409 -4.593,3.452 -6.558,5.578c-2.13,2.292 -4.261,4.529 -6.641,6.573c-4.87,4.225 -10.349,7.704 -16.215,10.41c-0.498,0.221 -0.056,0.939 0.415,0.718c5.645,-2.596 10.93,-5.909 15.662,-9.913c2.352,-1.961 4.51,-4.115 6.586,-6.352c2.158,-2.347 4.316,-4.722 7.139,-6.268c0.498,-0.304 0.083,-1.022 -0.388,-0.746z" fill="#000000" stroke="none" stroke-width="1"></path><path d="M213.771,188.946c-3.043,-0.635 -6.115,-1.298 -9.159,-1.988c-1.522,-0.331 -3.071,-0.745 -4.621,-1.022c-0.968,-0.165 -1.992,-0.248 -2.85,0.304c-1.328,0.856 -1.328,2.43 -0.138,3.369c0.858,0.69 1.964,0.994 2.988,1.326c1.661,0.524 3.072,1.187 4.151,2.595c0.332,0.415 1.051,0 0.719,-0.414c-0.968,-1.243 -2.13,-2.126 -3.625,-2.651c-1.023,-0.359 -2.158,-0.58 -3.099,-1.104c-0.664,-0.359 -1.522,-0.912 -1.024,-1.906c0.471,-0.939 1.661,-0.856 2.519,-0.718c2.296,0.332 4.593,0.994 6.89,1.519c2.352,0.525 4.704,1.022 7.056,1.519c0.498,0.083 0.719,-0.718 0.193,-0.829z" fill="#000000" stroke="none" stroke-width="1"></path><path d="M203.478,193.669c-1.218,2.236 -2.463,4.445 -3.68,6.682c-0.609,1.077 -1.135,2.237 -1.854,3.286c-0.748,1.077 -1.744,1.63 -2.906,2.182c-2.186,1.022 -4.538,1.85 -6.641,3.037c-0.941,0.553 -1.55,1.547 -0.747,2.513c0.996,1.188 2.961,0.718 4.289,0.497c1.826,-0.303 3.569,-0.911 5.23,-1.684c3.459,-1.657 6.392,-4.253 8.495,-7.456c0.304,-0.442 -0.415,-0.856 -0.72,-0.414c-1.854,2.872 -4.427,5.191 -7.443,6.793c-1.439,0.746 -2.989,1.353 -4.566,1.712c-0.885,0.221 -1.826,0.414 -2.767,0.442c-0.858,0.055 -1.079,0.166 -1.494,-0.69c-0.526,-0.498 -0.471,-0.829 0.138,-0.995c0.194,-0.082 0.36,-0.165 0.553,-0.248c1.771,-0.829 3.57,-1.629 5.341,-2.458c1.384,-0.635 2.739,-1.187 3.68,-2.43c1.107,-1.463 1.882,-3.203 2.767,-4.805c1.024,-1.85 2.048,-3.7 3.044,-5.523c0.249,-0.497 -0.47,-0.911 -0.719,-0.441z" fill="#000000" stroke="none" stroke-width="1"></path><path d="M216.124,199.716c7.388,-2.071 14.555,-4.832 21.417,-8.257c3.404,-1.712 6.724,-3.562 9.962,-5.605c2.905,-1.823 5.977,-3.673 8.052,-6.462c0.304,-0.442 -0.415,-0.856 -0.719,-0.414c-2.159,2.927 -5.535,4.832 -8.578,6.71c-3.1,1.905 -6.31,3.673 -9.575,5.302c-6.668,3.286 -13.614,5.937 -20.781,7.953c-0.498,0.11 -0.277,0.911 0.222,0.773z" fill="#000000" stroke="none" stroke-width="1"></path><path d="M243.324,118.171c2.297,-4.501 8.191,-3.48 11.096,-0.276c3.487,3.866 3.653,9.527 4.04,14.442c0.831,10.742 0.997,21.567 0.333,32.309c-0.333,5.219 -1.107,10.742 -4.594,14.884c-0.332,0.414 0.249,0.994 0.581,0.58c3.127,-3.756 4.206,-8.505 4.649,-13.255c0.581,-6.075 0.581,-12.233 0.526,-18.336c-0.056,-6.379 -0.36,-12.785 -0.941,-19.137c-0.443,-4.777 -1.301,-10.051 -5.258,-13.227c-3.376,-2.706 -9.02,-2.623 -11.179,1.602c-0.221,0.469 0.498,0.883 0.747,0.414z" fill="#000000" stroke="none" stroke-width="1"></path><path d="M191.192,212.336c2.02,0.911 4.455,2.292 6.752,2.292c2.213,-0.028 3.846,-1.85 5.34,-3.231c4.289,-3.977 8.578,-7.953 12.867,-11.902c0.388,-0.359 -0.193,-0.939 -0.581,-0.58c-3.625,3.369 -7.25,6.71 -10.875,10.079c-1.605,1.464 -3.265,3.563 -5.285,4.474c-2.38,1.077 -5.645,-0.856 -7.775,-1.823c-0.499,-0.248 -0.914,0.47 -0.443,0.691z" fill="#000000" stroke="none" stroke-width="1"></path><path d="M202.454,211.756c0.913,1.712 2.933,1.022 3.957,-0.166c2.02,-2.375 3.597,-5.246 5.313,-7.815c0.304,-0.441 -0.415,-0.856 -0.72,-0.414c-1.079,1.602 -2.158,3.204 -3.237,4.805c-0.609,0.884 -3.293,5.661 -4.594,3.176c-0.249,-0.47 -0.968,-0.055 -0.719,0.414z" fill="#000000" stroke="none" stroke-width="1"></path><path d="M196.034,210.403c0.83,0.442 1.854,0.884 2.767,0.442c0.471,-0.249 0.665,-0.635 0.886,-1.077c0.387,-0.746 0.775,-1.326 1.494,-1.795c0.443,-0.304 0.028,-1.022 -0.415,-0.718c-0.664,0.442 -1.217,0.994 -1.605,1.712c-0.277,0.525 -0.443,1.16 -1.162,1.215c-0.526,0.055 -1.107,-0.276 -1.55,-0.497c-0.442,-0.221 -0.885,0.469 -0.415,0.718z" fill="#000000" stroke="none" stroke-width="1"></path><path d="M190.362,52.6143c-0.969,1.9606 -1.937,5.2467 -2.242,6.3236c-0.442,1.5465 -1.439,5.1639 -1.992,9.9688c-0.304,2.651 -0.636,5.5505 -0.36,9.3889c0.139,1.8226 0.332,4.6945 1.411,8.2567c0.72,2.4301 1.771,5.9371 4.622,9.527c2.49,3.1204 5.34,5.0807 7.609,6.2687c1.439,0.027 3.182,-0.055 5.119,-0.414c3.487,-0.663 6.199,-1.9611 8.025,-3.0104c0.249,1.4084 0.581,2.8994 0.996,4.4454c0.858,3.204 1.909,6.02 2.961,8.45c1.134,-0.193 2.49,-0.524 3.929,-1.187c4.566,-2.126 6.752,-6.047 7.527,-7.677c-0.415,-1.601 -0.747,-3.3411 -1.052,-5.136c-1.051,-6.7103 -0.774,-12.7026 -0.11,-17.5628c0.581,0.1933 1.522,0.4419 2.684,0.3866c2.269,-0.138 3.818,-1.3807 4.593,-2.0434c0.664,-0.5523 3.68,-3.2309 3.57,-7.2074c-0.028,-0.9389 -0.083,-3.2309 -1.716,-4.4735c-1.522,-1.1322 -3.569,-0.718 -5.064,-0.4142c-1.715,0.359 -2.988,1.0769 -3.763,1.574c0.581,-1.9054 1.799,-6.7931 0,-12.4817c-0.387,-1.215 -2.961,-8.9471 -10.543,-12.2884c-10.293,-4.584 -22.662,2.2092 -26.204,9.3061z" fill="#ffffff" stroke="none" stroke-width="1"></path><path d="M221.63,52.78c0.221,2.5682 0.388,6.2961 0,10.7144c-1.19,13.393 -6.503,22.699 -7.886,25.0186c-2.103,3.5347 -5.7,8.6709 -11.456,13.724c1.716,-0.221 3.68,-0.607 5.783,-1.353c5.784,-2.0432 9.657,-5.5502 11.76,-7.8422c0.167,3.0652 0.692,6.7931 1.937,10.8802c0.554,1.74 1.163,3.341 1.799,4.777c1.467,-1.905 2.906,-3.811 4.372,-5.744c-0.304,-1.795 -0.581,-3.7 -0.775,-5.6606c-0.636,-5.9371 -0.636,-11.4047 -0.304,-16.2649c1.245,0.0276 3.044,-0.0828 4.953,-0.8284c8.357,-3.3137 13.116,-16.4858 8.606,-23.6655c-0.194,-0.3038 -1.19,-1.8502 -3.238,-3.2309c-6.336,-4.2526 -14.389,-1.0217 -15.551,-0.5247z" fill="#9b9797" stroke="none" stroke-width="1" opacity="0.24"></path><path d="M188.342,58.1096c-0.554,-1.9054 -1.329,-5.5505 -0.526,-10.024c0.249,-1.3808 1.107,-5.8267 4.151,-9.3337c4.455,-5.1087 10.044,-4.1422 17.294,-6.7379c4.593,-1.6292 10.902,-5.0534 17.295,-13.1168c-0.582,2.9823 -1.163,5.9923 -1.744,8.9746c0.996,0.2762 4.345,0.9942 7.776,-0.6903c5.7,-2.7891 6.198,-9.527 6.226,-9.8307c0.692,1.5464 1.937,4.9706 1.383,9.3336c-0.387,2.9824 -1.466,5.2191 -2.241,6.5722c0.332,0.359 2.103,2.1816 4.151,1.9054c2.49,-0.3313 4.815,-3.7279 4.15,-8.1186c0.554,1.6293 1.218,4.3079 1.052,7.594c-0.221,4.004 -1.55,7.014 -2.435,8.6433c0.221,0.1933 1.632,1.4635 3.625,1.215c1.743,-0.2209 3.237,-1.4912 3.818,-3.2861c-0.138,1.8501 -0.47,4.5287 -1.549,7.5939c-1.467,4.1422 -2.684,4.4736 -3.293,7.4283c-0.969,4.6392 1.522,6.2132 0.858,10.3554c-0.554,3.4794 -2.823,5.6609 -5.7,8.45c-5.23,5.0534 -11.235,7.7872 -16.271,9.306c0.221,-1.5464 0.47,-3.0928 0.692,-4.6392c0.636,0.3866 1.743,0.9113 3.126,0.8561c2.823,-0.1105 4.594,-2.6234 5.535,-3.9765c1.079,-1.5188 2.878,-4.1145 1.909,-6.9036c-0.802,-2.2644 -2.933,-3.2033 -3.127,-3.2861c-2.49,-1.0494 -5.7,-0.1105 -7.775,2.4301c-1.163,-4.5564 -2.297,-9.0852 -3.459,-13.6415c-3.93,-2.4853 -7.831,-4.943 -11.761,-7.4283c-1.937,-0.359 -7.222,-1.077 -13.143,1.5464c-5.977,2.651 -9.021,7.1521 -10.017,8.809z" fill="#94d82d" stroke="none" stroke-width="1"></path><path d="M187.927,57.9992c-2.352,8.7813 -3.764,18.115 -1.605,27.0897c1.771,7.2902 6.253,15.6021 13.891,17.9771c0.498,0.166 0.719,-0.635 0.221,-0.801c-7.665,-2.3748 -11.954,-11.0181 -13.531,-18.3083c-1.854,-8.5605 -0.443,-17.3971 1.798,-25.7366c0.166,-0.4971 -0.636,-0.718 -0.774,-0.2209z" fill="#000000" stroke="none" stroke-width="1"></path><path d="M200.821,102.928c12.757,-1.298 23.41,-10.4938 26.399,-22.9755c0.11,-0.5247 -0.664,-0.7456 -0.803,-0.2209c-2.905,12.0675 -13.171,21.0974 -25.596,22.3674c-0.525,0.055 -0.553,0.884 0,0.829z" fill="#000000" stroke="none" stroke-width="1"></path><path d="M226.5,80.1734c5.701,3.4794 11.262,-3.8108 11.622,-8.9194c0.194,-2.7062 -1.051,-4.7773 -3.735,-5.5505c-2.491,-0.718 -5.203,0.0276 -6.974,1.9054c-0.359,0.3866 0.222,0.9665 0.582,0.5799c1.466,-1.5741 3.68,-2.2644 5.81,-1.795c1.107,0.2486 2.325,0.8561 2.961,1.8502c0.692,1.077 0.609,2.5681 0.443,3.7555c-0.664,4.2803 -5.424,10.4107 -10.294,7.4283c-0.442,-0.2485 -0.885,0.4695 -0.415,0.7456z" fill="#000000" stroke="none" stroke-width="1"></path><path d="M226.445,80.1182c-1.079,7.6492 -0.692,15.4088 1.134,22.9198c0.139,0.525 0.941,0.304 0.803,-0.221c-1.799,-7.3728 -2.186,-14.9944 -1.135,-22.4779c0.056,-0.5247 -0.747,-0.7456 -0.802,-0.2209z" fill="#000000" stroke="none" stroke-width="1"></path><path d="M212.139,99.034c0.858,4.474 2.186,8.809 4.012,13.006c0.222,0.497 0.941,0.056 0.72,-0.414c-1.799,-4.114 -3.099,-8.395 -3.93,-12.8129c-0.11,-0.5246 -0.885,-0.3037 -0.802,0.2209z" fill="#000000" stroke="none" stroke-width="1"></path><path d="M216.732,112.151c5.341,-0.856 9.851,-4.529 11.871,-9.527c0.194,-0.497 -0.608,-0.718 -0.802,-0.221c-1.909,4.75 -6.254,8.146 -11.29,8.947c-0.526,0.083 -0.304,0.884 0.221,0.801z" fill="#000000" stroke="none" stroke-width="1"></path><path d="M212.803,100c1.135,0.056 1.909,-0.7175 2.767,-1.3803c1.135,-0.8836 2.214,-1.8225 3.21,-2.8166c1.854,-1.8502 3.348,-3.9765 4.317,-6.4066c0.193,-0.497 -0.609,-0.7179 -0.803,-0.2209c-0.858,2.1539 -2.186,4.0593 -3.791,5.7162c-0.719,0.7732 -1.494,1.4636 -2.296,2.1539c-0.886,0.7456 -2.159,2.1816 -3.404,2.1263c-0.526,-0.0276 -0.526,0.8008 0,0.828z" fill="#000000" stroke="none" stroke-width="1"></path><path d="M212.858,99.5589c2.352,-1.5188 4.538,-3.2585 6.586,-5.1639c0.387,-0.359 -0.194,-0.9665 -0.581,-0.5799c-1.992,1.8778 -4.123,3.5623 -6.42,5.0534c-0.47,0.2486 -0.027,0.9665 0.415,0.6904z" fill="#000000" stroke="none" stroke-width="1"></path><path d="M196.588,59.6008c-1.55,7.0416 -2.435,14.1938 -2.629,21.4011c0,0.4142 0.553,0.5523 0.775,0.2209c1.079,-1.7121 2.158,-3.4518 3.237,-5.1639c0.277,-0.4418 -0.442,-0.8836 -0.719,-0.4142c-1.079,1.7121 -2.158,3.4518 -3.238,5.1639c0.249,0.0829 0.526,0.1381 0.775,0.2209c0.194,-7.1245 1.079,-14.2214 2.601,-21.1802c0.111,-0.5523 -0.692,-0.7732 -0.802,-0.2485z" fill="#000000" stroke="none" stroke-width="1"></path><path d="M197.695,91.3849c-0.665,-1.2426 -1.107,-2.5681 -1.218,-3.9765c-0.083,-0.9941 0.138,-5.0258 2.02,-3.4242c0.996,0.8561 0.858,2.7339 0.885,3.9765c0,0.5799 0,1.1874 -0.055,1.7673c-0.028,0.4143 -0.083,0.8285 -0.166,1.2151c-0.719,0.497 -1.273,0.4694 -1.632,-0.0552c-0.36,-0.3866 -0.969,0.1933 -0.582,0.5799c1.19,1.215 2.74,1.2702 3.072,-0.6352c0.249,-1.3531 0.249,-2.789 0.138,-4.1421c-0.083,-1.077 -0.083,-2.6234 -0.885,-3.4518c-1.19,-1.2151 -2.878,-0.0829 -3.348,1.215c-0.858,2.3196 -0.028,5.2467 1.079,7.3454c0.221,0.4695 0.941,0.0553 0.692,-0.4142z" fill="#000000" stroke="none" stroke-width="1"></path><path d="M203.422,66.5319c0.831,3.8937 5.95,4.1974 7.472,0.6076c0.193,-0.4971 -0.609,-0.718 -0.803,-0.221c-1.245,2.9272 -5.23,2.3749 -5.866,-0.6075c-0.111,-0.497 -0.913,-0.3037 -0.803,0.2209z" fill="#000000" stroke="none" stroke-width="1"></path><path d="M201.79,56.9498c1.051,-2.3473 3.763,-3.4795 6.254,-2.9548c2.573,0.5523 4.538,2.5405 5.811,4.7221c0.276,0.4694 0.996,0.0552 0.719,-0.4142c-1.467,-2.5129 -3.791,-4.7497 -6.779,-5.1915c-2.685,-0.3866 -5.562,0.8836 -6.725,3.3965c-0.221,0.5247 0.499,0.9389 0.72,0.4419z" fill="#000000" stroke="none" stroke-width="1"></path><path d="M185.575,57.8611c0.747,-1.5464 2.047,-3.2309 3.957,-3.2033c1.826,0.0277 3.154,1.6293 4.067,3.0376c0.277,0.4419 0.996,0.0276 0.72,-0.4142c-1.052,-1.6845 -2.629,-3.4242 -4.787,-3.4518c-2.214,-0.0276 -3.764,1.795 -4.649,3.6175c-0.249,0.4694 0.47,0.8837 0.692,0.4142z" fill="#000000" stroke="none" stroke-width="1"></path><path d="M190.472,70.3704c0.489,0 0.886,-1.8174 0.886,-4.0593c0,-2.2419 -0.397,-4.0593 -0.886,-4.0593c-0.489,0 -0.885,1.8174 -0.885,4.0593c0,2.2419 0.396,4.0593 0.885,4.0593z" fill="#000000" stroke="none" stroke-width="1"></path><path d="M193.018,114.056c-0.083,1.022 -0.194,2.43 -0.249,4.06c-0.249,5.578 -0.028,9.803 0.055,10.935c0.222,3.673 0.72,8.478 1.882,14.056c-1.107,1.27 -2.767,3.148 -4.898,5.357c-4.04,4.225 -6.115,6.379 -9.436,8.616c-3.708,2.485 -6.281,3.258 -7.665,3.617c-1.743,0.414 -3.403,0.801 -5.423,0.359c-3.293,-0.746 -5.258,-3.176 -5.977,-4.115c-1.826,-2.319 -2.241,-4.584 -2.989,-9.002c-0.553,-3.231 -0.664,-5.688 -0.83,-10.438c-0.083,-2.264 -0.193,-5.026 -0.138,-8.726c0.055,-4.17 0.277,-9.113 0.885,-14.636c0.277,-2.485 0.664,-5.55 1.273,-9.03c-0.47,-0.662 -0.968,-1.325 -1.494,-2.016c-0.553,-0.718 -1.079,-1.408 -1.633,-2.098c-1.411,1.187 -2.794,2.402 -4.206,3.59c-0.359,0.138 -0.996,0.359 -1.771,0.276c-1.466,-0.138 -2.324,-1.16 -2.628,-1.491c-1.356,-1.547 -1.163,-3.5074 -1.107,-3.894c1.909,-2.0711 3.818,-4.1146 5.755,-6.1857c0.028,-1.1874 0.194,-2.7338 0.665,-4.4459c0.359,-1.2702 0.802,-2.3196 1.217,-3.2032c0.36,-0.718 0.858,-1.5188 1.494,-2.3196c1.135,-1.4912 2.352,-2.5406 3.349,-3.2585c-0.803,0.359 -0.997,0.359 -1.052,0.3037c-0.138,-0.2209 1.162,-1.8501 2.989,-2.0158c1.023,-0.1105 1.826,0.2761 2.379,0.5247c0.858,0.4142 1.439,0.9388 1.799,1.3254c1.715,-1.4635 3.431,-2.9271 5.147,-4.363c0.608,0.359 1.217,0.7732 1.826,1.1874c1.411,0.9665 2.684,1.933 3.819,2.8719c-0.415,0.5247 -0.941,1.1046 -1.605,1.6845c-1.107,0.9665 -2.214,1.5464 -3.072,1.933c0.526,0.1656 1.467,0.5522 1.937,1.4635c0.471,0.8837 0.277,1.8502 0,3.0652c-0.194,0.8284 -0.443,1.4912 -0.636,1.933c0.11,1.1598 0.166,2.7338 -0.166,4.5012c-0.526,2.8995 -1.744,5.0534 -2.574,6.2962c-0.027,1.077 -0.055,2.761 0,4.832c0.222,8.533 1.467,13.531 2.269,19.827c0.471,3.59 0.941,8.92 0.803,15.63c0.636,-0.414 1.549,-1.077 2.573,-1.933c2.601,-2.181 4.262,-4.363 6.448,-7.566c2.158,-3.121 3.569,-5.44 5.479,-8.533c1.189,-2.016 3.099,-5.081 5.506,-8.975z" fill="#ffffff" stroke="none" stroke-width="1"></path><path d="M167.865,88.8444c-0.581,1.2702 -1.162,2.5681 -1.743,3.8936c-1.688,3.9765 -3.072,7.787 -4.206,11.432c-0.249,5.744 -0.388,10.549 -0.498,14.028c-0.139,5.275 0.193,11.571 0.802,24.163c0.249,5.192 0.47,8.34 2.906,10.632c2.545,2.374 6.087,2.43 8.079,2.43c10.626,-0.028 18.568,-9.058 20.754,-11.681c-2.961,5.026 -6.337,8.312 -8.634,10.245c-2.601,2.181 -5.949,4.915 -11.151,6.268c-4.4,1.16 -6.392,0.911 -6.918,0.801c-3.791,-0.911 -5.894,-4.059 -6.641,-5.136c-1.799,-2.679 -2.38,-5.468 -2.712,-11.46c-0.332,-6.158 0.028,-7.788 0.139,-16.265c0.083,-8.091 -0.222,-10.383 0.387,-15.989c0.36,-3.286 0.803,-5.992 1.162,-7.815c-1.079,-1.132 -2.158,-2.264 -3.237,-3.369c-0.913,0.801 -1.854,1.574 -2.795,2.375c-0.609,0.525 -1.245,1.049 -1.854,1.547c-0.553,0.055 -1.356,0.027 -2.214,-0.332c-2.213,-0.939 -3.597,-3.673 -2.905,-4.611c0.443,-0.6356 1.605,-0.1385 3.21,-0.1385c2.767,0.0276 4.621,-1.3807 8.301,-4.0317c2.601,-1.9054 5.59,-4.0317 9.768,-6.9864z" fill="#9b9797" stroke="none" stroke-width="1" opacity="0.24"></path><path d="M192.658,113.835c-6.392,8.809 -11.123,18.916 -19.203,26.427c-0.388,0.359 0.193,0.939 0.581,0.58c8.135,-7.566 12.894,-17.728 19.342,-26.592c0.332,-0.415 -0.388,-0.829 -0.72,-0.415z" fill="#000000" stroke="none" stroke-width="1"></path><path d="M168.861,161.691c10.958,-0.718 18.817,-9.886 25.402,-17.673c0.332,-0.414 -0.249,-0.994 -0.581,-0.58c-6.392,7.622 -14.14,16.734 -24.793,17.452c-0.554,0 -0.554,0.829 -0.028,0.801z" fill="#000000" stroke="none" stroke-width="1"></path><path d="M163.659,83.9015c0.055,2.1815 1.494,4.0593 3.597,4.6668c0.526,0.1381 0.747,-0.6627 0.222,-0.8008c-1.744,-0.4971 -2.934,-2.0711 -2.989,-3.866c-0.028,-0.5247 -0.858,-0.5247 -0.83,0z" fill="#000000" stroke="none" stroke-width="1"></path><path d="M164.517,83.6529c0.276,-2.4024 4.565,-0.6627 5.728,-0.0552c1.134,0.5799 2.269,1.1598 2.518,2.5405c0.193,1.0494 -0.139,2.1539 -0.415,3.1757c-0.139,0.5246 0.664,0.7456 0.802,0.2209c0.388,-1.3807 0.803,-2.9548 0.222,-4.3079c-0.554,-1.3807 -2.076,-2.0158 -3.321,-2.6233c-1.273,-0.6075 -2.656,-1.0494 -4.095,-0.8837c-0.581,0.0829 -1.329,0.2209 -1.799,0.6075c-0.498,0.3866 -0.387,0.6628 -0.47,1.3531c-0.056,0.4971 0.774,0.4971 0.83,-0.0276z" fill="#000000" stroke="none" stroke-width="1"></path><path d="M172.071,89.1482c-0.083,2.0987 0.387,4.1421 -0.111,6.2408c-0.47,1.933 -1.411,3.7279 -2.352,5.468c-0.249,0.469 0.471,0.883 0.72,0.414c0.968,-1.8227 1.937,-3.6729 2.435,-5.6611c0.526,-2.1539 0.055,-4.2802 0.138,-6.4617c0.028,-0.5523 -0.802,-0.5523 -0.83,0z" fill="#000000" stroke="none" stroke-width="1"></path><path d="M169.608,100.884c-0.636,14.553 3.542,28.802 2.878,43.355c-0.028,0.524 0.802,0.524 0.83,0c0.664,-14.553 -3.514,-28.802 -2.878,-43.355c0.028,-0.525 -0.802,-0.525 -0.83,0z" fill="#000000" stroke="none" stroke-width="1"></path><path d="M156.022,101.188c0.83,1.16 1.715,2.264 2.711,3.286c0.36,0.387 0.941,-0.193 0.582,-0.58c-0.941,-0.994 -1.799,-2.016 -2.574,-3.12c-0.332,-0.442 -1.051,-0.028 -0.719,0.414z" fill="#000000" stroke="none" stroke-width="1"></path><path d="M159.204,104.253c-1.577,8.975 -2.352,18.088 -2.325,27.2c0.028,4.529 0.25,9.085 0.692,13.587c0.36,3.838 0.803,7.87 2.823,11.239c1.826,3.065 5.036,5.384 8.689,5.302c0.525,-0.028 0.525,-0.856 0,-0.829c-5.12,0.138 -8.413,-4.418 -9.602,-8.892c-1.329,-4.915 -1.439,-10.272 -1.633,-15.326c-0.415,-10.714 0.332,-21.484 2.186,-32.032c0.055,-0.553 -0.747,-0.774 -0.83,-0.249z" fill="#000000" stroke="none" stroke-width="1"></path><path d="M153.974,91.8543c-2.601,2.1816 -5.119,4.4735 -7.499,6.876c-0.387,0.3866 0.221,0.9665 0.581,0.5799c2.408,-2.4024 4.898,-4.6945 7.499,-6.876c0.415,-0.3314 -0.166,-0.9113 -0.581,-0.5799z" fill="#000000" stroke="none" stroke-width="1"></path><path d="M146.226,99.4759c-0.415,3.2031 2.02,5.9091 5.258,5.8821c0.525,0 0.525,-0.829 0,-0.829c-2.795,0.028 -4.788,-2.319 -4.428,-5.0531c0.083,-0.5247 -0.747,-0.5247 -0.83,0z" fill="#000000" stroke="none" stroke-width="1"></path><path d="M147.001,99.2827c2.905,0.0828 4.925,2.6783 4.317,5.4953c-0.111,0.525 0.691,0.746 0.802,0.221c0.747,-3.397 -1.633,-6.4343 -5.119,-6.5448c-0.526,0 -0.526,0.8285 0,0.8285z" fill="#000000" stroke="none" stroke-width="1"></path><path d="M152.452,104.861c3.155,-2.872 6.364,-5.7165 9.436,-8.6712c1.411,-1.3531 2.767,-2.7338 4.04,-4.225c0.692,-0.8008 2.435,-2.3748 2.463,-3.4794c0,-0.1381 -0.083,-0.3038 -0.194,-0.359c-0.055,-0.0276 -0.111,-0.0552 -0.138,-0.0552c-0.166,-0.0829 -0.388,-0.0829 -0.498,0.0552c-0.028,0.0276 -0.056,0.0552 -0.083,0.1105c-0.332,0.4142 0.249,0.9941 0.581,0.5799c0.027,-0.0276 0.055,-0.0553 0.083,-0.1105c-0.166,0.0276 -0.332,0.0552 -0.498,0.0552c-0.056,-0.2485 -0.139,-0.2485 -0.249,0.0277c-0.139,0.1933 -0.277,0.3866 -0.443,0.5799c-0.332,0.4142 -0.637,0.8284 -0.996,1.2426c-0.554,0.6904 -1.163,1.3531 -1.744,2.0159c-1.217,1.3254 -2.49,2.5681 -3.791,3.7831c-2.822,2.651 -5.7,5.2193 -8.55,7.8423c-0.415,0.387 0.194,0.967 0.581,0.608z" fill="#000000" stroke="none" stroke-width="1"></path><path d="M152.812,93.4007c0.194,-1.3255 0.387,-2.6509 0.581,-3.9764c0.138,-0.9942 0.249,-2.0987 0.802,-2.9824c1.273,-2.0434 3.072,-0.5799 4.04,0.8008c0.415,0.5799 0.803,1.2151 1.218,1.795c0.221,0.3313 1.3,1.5188 1.162,1.933c0.138,-0.1105 0.277,-0.1933 0.388,-0.3038c-0.056,0 -0.083,0 -0.139,0c-0.526,-0.0276 -0.526,0.8008 0,0.8284c0.056,0 0.083,0 0.139,0c0.193,0 0.359,-0.138 0.387,-0.3037c0.194,-0.6904 -0.277,-1.1046 -0.637,-1.6569c-0.691,-1.0217 -1.355,-2.0711 -2.075,-3.0652c-0.747,-1.0217 -1.715,-2.0158 -3.099,-1.8778c-1.328,0.1381 -2.131,1.1599 -2.546,2.3473c-0.692,1.9606 -0.747,4.1974 -1.051,6.2408c-0.056,0.5247 0.747,0.7456 0.83,0.2209z" fill="#000000" stroke="none" stroke-width="1"></path><path d="M154.112,90.2804c0.748,1.4636 1.993,2.9548 3.764,3.0652c1.466,0.1105 2.85,-0.718 3.237,-2.1539c0.139,-0.5247 -0.664,-0.7456 -0.802,-0.2209c-0.36,1.3255 -1.827,1.8225 -3.044,1.4083c-1.162,-0.4142 -1.909,-1.4359 -2.435,-2.4853c-0.249,-0.4971 -0.969,-0.0828 -0.72,0.3866z" fill="#000000" stroke="none" stroke-width="1"></path><path d="M155.136,84.8956c0.139,-1.3531 1.688,-1.7121 2.74,-1.3531c1.107,0.359 1.964,1.3531 2.739,2.1539c0.609,0.6352 1.799,1.5188 1.965,2.4025c0.221,1.1874 -1.273,1.9882 -2.269,2.292c-0.498,0.138 -0.305,0.9389 0.221,0.8008c1.218,-0.359 2.989,-1.436 3.182,-2.8719c0.083,-0.5799 -0.276,-0.8837 -0.664,-1.2979c-0.775,-0.8284 -1.522,-1.6292 -2.324,-2.43c-1.079,-1.1046 -2.463,-2.292 -4.123,-2.0159c-1.245,0.1933 -2.159,1.0217 -2.297,2.292c-0.055,0.5523 0.775,0.5523 0.83,0.0276z" fill="#000000" stroke="none" stroke-width="1"></path><path d="M156.63,82.8521c0.388,-0.4418 0.582,-1.0217 0.941,-1.4635c0.886,-1.1046 2.269,-0.0829 3.182,0.5799c1.771,1.2426 3.653,3.507 2.048,5.6609c-0.304,0.4418 0.415,0.856 0.72,0.4142c1.715,-2.3196 0.027,-4.9982 -1.937,-6.4894c-0.914,-0.6903 -2.297,-1.933 -3.542,-1.574c-1.107,0.3038 -1.301,1.574 -1.993,2.3196c-0.359,0.359 0.222,0.9389 0.581,0.5523z" fill="#000000" stroke="none" stroke-width="1"></path><path d="M159.425,80.3391c0.969,-1.1874 2.242,-2.43 3.736,-1.1874c0.996,0.8008 1.632,1.933 1.992,3.1204c0.166,0.4971 0.941,0.3038 0.803,-0.2209c-0.471,-1.6016 -1.55,-3.4518 -3.155,-4.1145c-1.632,-0.6628 -2.988,0.6351 -3.957,1.8225c-0.332,0.3866 0.249,0.9941 0.581,0.5799z" fill="#000000" stroke="none" stroke-width="1"></path><path d="M165.541,80.4496c1.715,-1.4636 3.431,-2.9271 5.146,-4.3631c0.415,-0.3589 -0.193,-0.9389 -0.581,-0.5799c-1.715,1.4636 -3.431,2.9272 -5.147,4.3631c-0.415,0.359 0.194,0.9389 0.582,0.5799z" fill="#000000" stroke="none" stroke-width="1"></path><path d="M171.656,83.9842c1.633,-1.1874 3.21,-2.4576 4.676,-3.8383c0.388,-0.359 -0.193,-0.9389 -0.581,-0.5799c-1.439,1.3254 -2.933,2.5681 -4.51,3.7003c-0.443,0.3037 -0.028,1.0217 0.415,0.7179z" fill="#000000" stroke="none" stroke-width="1"></path><path d="M184.08,81.9132c9.231,0 16.714,-7.4675 16.714,-16.6791c0,-9.2116 -7.483,-16.679 -16.714,-16.679c-9.23,0 -16.713,7.4674 -16.713,16.679c0,9.2116 7.483,16.6791 16.713,16.6791z" fill="none" stroke="#000000" stroke-width="3"></path><path d="M173.953,67.2776c6.143,-3.9213 12.424,-7.6216 18.844,-11.101c0.47,-0.2485 0.055,-0.9665 -0.415,-0.718c-6.42,3.4518 -12.701,7.1522 -18.844,11.101c-0.443,0.3038 -0.028,1.0217 0.415,0.718z" fill="#000000" stroke="none" stroke-width="1"></path><path d="M174.644,74.5125c5.064,-3.7003 10.183,-7.2625 15.413,-10.7419c0.443,-0.3038 0.028,-1.0218 -0.415,-0.718c-5.202,3.4794 -10.349,7.0693 -15.413,10.742c-0.442,0.3037 -0.027,1.0217 0.415,0.7179z" fill="#000000" stroke="none" stroke-width="1"></path></g></g></g></svg>