<svg version="1.1" xmlns="http://www.w3.org/2000/svg" xmlns:xlink="http://www.w3.org/1999/xlink" width="16" height="16" viewBox="0,0,256,256"><g fill="#94d82d" fill-rule="nonzero" stroke="none" stroke-width="1" stroke-linecap="butt" stroke-linejoin="miter" stroke-miterlimit="10" stroke-dasharray="" stroke-dashoffset="0" font-family="none" font-weight="none" font-size="none" text-anchor="none" style="mix-blend-mode: normal"><g><g><g transform="scale(16,16)"><path d="M16,8c0,2.1217 -0.8429,4.1566 -2.3431,5.6569c-1.5003,1.5002 -3.5352,2.3431 -5.6569,2.3431c-2.12173,0 -4.15656,-0.8429 -5.65685,-2.3431c-1.50029,-1.5003 -2.34315,-3.5352 -2.34315,-5.6569c0,-2.12173 0.84286,-4.15656 2.34315,-5.65685c1.50029,-1.50029 3.53512,-2.34315 5.65685,-2.34315c2.1217,0 4.1566,0.84286 5.6569,2.34315c1.5002,1.50029 2.3431,3.53512 2.3431,5.65685zM8,4c-0.12639,0.00007 -0.25137,0.02662 -0.36688,0.07793c-0.11551,0.05131 -0.21899,0.12625 -0.30378,0.21998c-0.08478,0.09374 -0.14899,0.20419 -0.1885,0.32426c-0.0395,0.12006 -0.05341,0.24706 -0.04084,0.37283l0.35,3.507c0.01176,0.13777 0.0748,0.26611 0.17664,0.35964c0.10185,0.09352 0.23509,0.14541 0.37336,0.14541c0.13827,0 0.27151,-0.05189 0.37336,-0.14541c0.10184,-0.09353 0.16488,-0.22187 0.17664,-0.35964l0.35,-3.507c0.01257,-0.12577 -0.00134,-0.25277 -0.04085,-0.37283c-0.0395,-0.12007 -0.10371,-0.23052 -0.18849,-0.32426c-0.08479,-0.09373 -0.18827,-0.16867 -0.30378,-0.21998c-0.11551,-0.05131 -0.24049,-0.07786 -0.36688,-0.07793zM8.002,10c-0.26522,0 -0.51957,0.1054 -0.70711,0.2929c-0.18753,0.1875 -0.29289,0.4419 -0.29289,0.7071c0,0.2652 0.10536,0.5196 0.29289,0.7071c0.18754,0.1875 0.44189,0.2929 0.70711,0.2929c0.26522,0 0.51957,-0.1054 0.70711,-0.2929c0.18753,-0.1875 0.29289,-0.4419 0.29289,-0.7071c0,-0.2652 -0.10536,-0.5196 -0.29289,-0.7071c-0.18754,-0.1875 -0.44189,-0.2929 -0.70711,-0.2929z"></path></g></g></g></g></svg>